<?xml version="1.0" encoding="utf-8"?>
<!-- Generator: Adobe Illustrator 16.0.3, SVG Export Plug-In . SVG Version: 6.00 Build 0)  -->
<!DOCTYPE svg PUBLIC "-//W3C//DTD SVG 1.1//EN" "http://www.w3.org/Graphics/SVG/1.1/DTD/svg11.dtd">
<svg xmlns="http://www.w3.org/2000/svg" xmlns:xlink="http://www.w3.org/1999/xlink" version="1.1" id="Ebene_1" x="0px" y="0px" width="505.62px" height="73.26px" viewBox="0 0 505.62 73.26" enable-background="new 0 0 505.62 73.26" xml:space="preserve">
<g>
	<polygon fill="#BE0A26" points="18.52,10.08 5,23.6 7.63,26.23 18.52,15.34 39.65,36.46 18.52,57.59 7.77,46.83 5.14,49.46    18.52,62.85 44.91,36.46  "/>
	<g>
		<polygon fill="#3E3D40" points="39,15.34 60.13,36.46 51.19,45.4 53.81,48.03 65.38,36.46 39,10.08 33.53,15.55 36.16,18.18   "/>
		<polygon fill="#3E3D40" points="47.52,49.07 39,57.59 19.45,38.04 19.4,38.1 15.19,33.89 12.62,36.46 39,62.85 50.15,51.7   "/>
	</g>
</g>
<g>
	<path fill="#BE0A26" d="M118.66,46.89c-1.2,2.66-2.86,4.86-4.98,6.6c-2.12,1.74-4.61,3.03-7.47,3.87   c-2.86,0.84-5.93,1.26-9.21,1.26H84.94V16.14H97c3.28,0,6.35,0.41,9.21,1.23c2.86,0.82,5.35,2.1,7.47,3.84   c2.12,1.74,3.78,3.95,4.98,6.63c1.2,2.68,1.8,5.86,1.8,9.54C120.46,41.06,119.86,44.23,118.66,46.89z M86.32,57.42H96.7   c3.12,0,6.05-0.39,8.79-1.17c2.74-0.78,5.11-1.98,7.11-3.6c2-1.62,3.58-3.69,4.74-6.21c1.16-2.52,1.74-5.54,1.74-9.06   c0-3.52-0.58-6.55-1.74-9.09c-1.16-2.54-2.74-4.62-4.74-6.24c-2-1.62-4.37-2.81-7.11-3.57c-2.74-0.76-5.67-1.14-8.79-1.14H86.32   V57.42z"/>
	<path fill="#BE0A26" d="M130.36,16.14h1.32v42.48h-1.32V16.14z"/>
	<path fill="#BE0A26" d="M172.84,58.68c-2.56,0.76-5.52,1.14-8.88,1.14s-6.42-0.58-9.18-1.74c-2.76-1.16-5.12-2.75-7.08-4.77   s-3.47-4.4-4.53-7.14c-1.06-2.74-1.59-5.71-1.59-8.91c0-3.2,0.54-6.17,1.62-8.91c1.08-2.74,2.59-5.1,4.53-7.08s4.27-3.53,6.99-4.65   c2.72-1.12,5.72-1.68,9-1.68c2.88,0,5.52,0.44,7.92,1.32s4.52,2.08,6.36,3.6l-0.96,0.96c-0.8-0.76-1.73-1.43-2.79-2.01   c-1.06-0.58-2.18-1.07-3.36-1.47c-1.18-0.4-2.39-0.7-3.63-0.9c-1.24-0.2-2.44-0.3-3.6-0.3c-3.12,0-5.96,0.55-8.52,1.65   c-2.56,1.1-4.75,2.61-6.57,4.53s-3.22,4.16-4.2,6.72c-0.98,2.56-1.47,5.3-1.47,8.22s0.48,5.68,1.44,8.28s2.35,4.87,4.17,6.81   c1.82,1.94,4.04,3.47,6.66,4.59c2.62,1.12,5.59,1.68,8.91,1.68c2.88,0,5.44-0.3,7.68-0.9s4.3-1.36,6.18-2.28V38.76H166.9v-1.14   h12.3v18.54C177.52,57.08,175.4,57.92,172.84,58.68z"/>
	<path fill="#BE0A26" d="M190.42,16.14h1.32v42.48h-1.32V16.14z"/>
	<path fill="#BE0A26" d="M214.06,58.62h-1.32V17.34h-14.46v-1.2h30.24v1.2h-14.46V58.62z"/>
	<path fill="#BE0A26" d="M258.76,46.44H234.1l-5.22,12.18h-1.44l18.42-42.48h1.68l17.7,42.48h-1.44L258.76,46.44z M234.58,45.3   h23.76l-11.7-28.32L234.58,45.3z"/>
	<path fill="#BE0A26" d="M273.04,16.14h1.32v41.28h21.12v1.2h-22.44V16.14z"/>
	<path fill="#3E3D40" d="M303.28,16.14h1.32v41.28h21.12v1.2h-22.44V16.14z"/>
	<path fill="#3E3D40" d="M359.56,46.44H334.9l-5.22,12.18h-1.44l18.42-42.48h1.68l17.7,42.48h-1.44L359.56,46.44z M335.38,45.3   h23.76l-11.7-28.32L335.38,45.3z"/>
	<path fill="#3E3D40" d="M399.25,52.89c-0.86,1.46-1.96,2.61-3.3,3.45s-2.82,1.43-4.44,1.77c-1.62,0.34-3.17,0.51-4.65,0.51h-13.02   V16.14h11.58c1.6,0,3.19,0.16,4.77,0.48c1.58,0.32,2.99,0.86,4.23,1.62c1.24,0.76,2.24,1.78,3,3.06c0.76,1.28,1.14,2.9,1.14,4.86   c0,1.52-0.24,2.84-0.72,3.96c-0.48,1.12-1.13,2.08-1.95,2.88c-0.82,0.8-1.75,1.45-2.79,1.95s-2.1,0.87-3.18,1.11v0.12   c1.08,0.12,2.24,0.41,3.48,0.87s2.39,1.13,3.45,2.01c1.06,0.88,1.94,2,2.64,3.36c0.7,1.36,1.05,2.98,1.05,4.86   C400.54,49.56,400.11,51.43,399.25,52.89z M396.22,22.02c-0.68-1.16-1.58-2.08-2.7-2.76s-2.41-1.17-3.87-1.47   c-1.46-0.3-2.99-0.45-4.59-0.45h-9.9v18.3h10.2c1.44,0,2.87-0.18,4.29-0.54s2.69-0.91,3.81-1.65c1.12-0.74,2.03-1.7,2.73-2.88   c0.7-1.18,1.05-2.59,1.05-4.23C397.24,24.62,396.9,23.18,396.22,22.02z M398.05,42.54c-0.78-1.36-1.77-2.46-2.97-3.3   c-1.2-0.84-2.52-1.45-3.96-1.83c-1.44-0.38-2.84-0.57-4.2-0.57h-11.76v20.58h11.1c1.84,0,3.56-0.19,5.16-0.57   c1.6-0.38,2.97-0.97,4.11-1.77c1.14-0.8,2.04-1.83,2.7-3.09c0.66-1.26,0.99-2.77,0.99-4.53C399.22,45.54,398.83,43.9,398.05,42.54z   "/>
	<path fill="#3E3D40" d="M431.74,51.93c-0.48,1.42-1.21,2.68-2.19,3.78c-0.98,1.1-2.24,1.98-3.78,2.64s-3.37,0.99-5.49,0.99   c-2.72,0-5.13-0.62-7.23-1.86c-2.1-1.24-3.67-2.88-4.71-4.92l1.26-0.54c0.88,1.84,2.28,3.3,4.2,4.38s4.08,1.66,6.48,1.74   c1.76,0.04,3.32-0.22,4.68-0.78c1.36-0.56,2.5-1.33,3.42-2.31s1.61-2.13,2.07-3.45c0.46-1.32,0.69-2.72,0.69-4.2   c0-1.84-0.39-3.42-1.17-4.74c-0.78-1.32-1.77-2.41-2.97-3.27c-1.2-0.86-2.52-1.49-3.96-1.89c-1.44-0.4-2.8-0.6-4.08-0.6h-1.32v-1.2   h1.32c1.28,0,2.55-0.19,3.81-0.57c1.26-0.38,2.4-0.97,3.42-1.77c1.02-0.8,1.85-1.82,2.49-3.06s0.96-2.74,0.96-4.5   c0-1.4-0.24-2.67-0.72-3.81c-0.48-1.14-1.14-2.11-1.98-2.91c-0.84-0.8-1.83-1.42-2.97-1.86s-2.37-0.66-3.69-0.66   c-1.76,0-3.44,0.38-5.04,1.14c-1.6,0.76-2.86,1.84-3.78,3.24l-1.08-0.72c1.04-1.48,2.41-2.65,4.11-3.51s3.63-1.29,5.79-1.29   c1.52,0,2.93,0.24,4.23,0.72c1.3,0.48,2.42,1.17,3.36,2.07c0.94,0.9,1.68,1.99,2.22,3.27c0.54,1.28,0.81,2.72,0.81,4.32   c0,1.2-0.17,2.37-0.51,3.51c-0.34,1.14-0.87,2.17-1.59,3.09c-0.72,0.92-1.65,1.72-2.79,2.4c-1.14,0.68-2.49,1.14-4.05,1.38v0.12   c1.8,0.28,3.36,0.78,4.68,1.5c1.32,0.72,2.41,1.58,3.27,2.58c0.86,1,1.5,2.11,1.92,3.33c0.42,1.22,0.63,2.47,0.63,3.75   C432.46,49.02,432.22,50.51,431.74,51.93z"/>
	<path fill="#3E3D40" d="M440.95,41.55c0.54-1.78,1.47-3.81,2.79-6.09l11.22-19.32h1.56l-12.78,21.6l0.12,0.06   c1.04-1.28,2.39-2.3,4.05-3.06c1.66-0.76,3.43-1.14,5.31-1.14c1.72,0,3.32,0.33,4.8,0.99c1.48,0.66,2.76,1.56,3.84,2.7   s1.93,2.51,2.55,4.11s0.93,3.32,0.93,5.16s-0.31,3.54-0.93,5.1s-1.49,2.91-2.61,4.05c-1.12,1.14-2.46,2.03-4.02,2.67   c-1.56,0.64-3.26,0.96-5.1,0.96s-3.53-0.31-5.07-0.93c-1.54-0.62-2.86-1.5-3.96-2.64c-1.1-1.14-1.96-2.49-2.58-4.05   c-0.62-1.56-0.93-3.28-0.93-5.16C440.14,45,440.41,43.33,440.95,41.55z M442.3,51.21c0.56,1.42,1.34,2.65,2.34,3.69   c1,1.04,2.19,1.85,3.57,2.43s2.89,0.87,4.53,0.87c1.64,0,3.15-0.29,4.53-0.87s2.57-1.39,3.57-2.43c1-1.04,1.78-2.27,2.34-3.69   c0.56-1.42,0.84-2.97,0.84-4.65c0-1.68-0.27-3.24-0.81-4.68c-0.54-1.44-1.3-2.69-2.28-3.75c-0.98-1.06-2.14-1.89-3.48-2.49   s-2.81-0.9-4.41-0.9c-1.56,0-3.04,0.3-4.44,0.9c-1.4,0.6-2.63,1.43-3.69,2.49c-1.06,1.06-1.9,2.31-2.52,3.75   c-0.62,1.44-0.93,3-0.93,4.68C441.46,48.24,441.74,49.79,442.3,51.21z"/>
	<path fill="#3E3D40" d="M477.46,57.27c-1.72-1.38-3.06-3.13-4.02-5.25c-0.96-2.12-1.62-4.48-1.98-7.08   c-0.36-2.6-0.54-5.12-0.54-7.56s0.18-4.96,0.54-7.56c0.36-2.6,1.02-4.96,1.98-7.08c0.96-2.12,2.3-3.87,4.02-5.25   s3.94-2.07,6.66-2.07c2.72,0,4.94,0.69,6.66,2.07s3.06,3.13,4.02,5.25c0.96,2.12,1.62,4.48,1.98,7.08c0.36,2.6,0.54,5.12,0.54,7.56   s-0.18,4.96-0.54,7.56c-0.36,2.6-1.02,4.96-1.98,7.08c-0.96,2.12-2.3,3.87-4.02,5.25s-3.94,2.07-6.66,2.07   C481.4,59.34,479.18,58.65,477.46,57.27z M479.47,17.73c-1.3,0.74-2.39,1.7-3.27,2.88c-0.88,1.18-1.58,2.52-2.1,4.02   c-0.52,1.5-0.92,3.02-1.2,4.56c-0.28,1.54-0.46,3.03-0.54,4.47s-0.12,2.68-0.12,3.72c0,1.08,0.04,2.33,0.12,3.75   s0.26,2.9,0.54,4.44c0.28,1.54,0.68,3.06,1.2,4.56c0.52,1.5,1.22,2.84,2.1,4.02s1.97,2.14,3.27,2.88c1.3,0.74,2.85,1.11,4.65,1.11   c1.8,0,3.35-0.37,4.65-1.11c1.3-0.74,2.39-1.7,3.27-2.88s1.58-2.52,2.1-4.02c0.52-1.5,0.92-3.02,1.2-4.56   c0.28-1.54,0.46-3.02,0.54-4.44s0.12-2.67,0.12-3.75c0-1.04-0.04-2.28-0.12-3.72s-0.26-2.93-0.54-4.47   c-0.28-1.54-0.68-3.06-1.2-4.56c-0.52-1.5-1.22-2.84-2.1-4.02c-0.88-1.18-1.97-2.14-3.27-2.88c-1.3-0.74-2.85-1.11-4.65-1.11   C482.32,16.62,480.77,16.99,479.47,17.73z"/>
</g>
</svg>
